<?xml version="1.0" encoding="UTF-8" standalone="no"?>
<!DOCTYPE svg PUBLIC "-//W3C//DTD SVG 1.1//EN" "http://www.w3.org/Graphics/SVG/1.1/DTD/svg11.dtd">
<svg version="1.1" xmlns="http://www.w3.org/2000/svg" xmlns:xlink="http://www.w3.org/1999/xlink" preserveAspectRatio="xMidYMid meet" viewBox="0 0 640 640" width="640" height="640"><defs><path d="M320 0C143.27 0 0 143.27 0 320C0 496.73 143.27 640 320 640C496.73 640 640 496.73 640 320C640 143.27 496.73 0 320 0Z" id="a6t7czVih"></path><path d="M444.4 288.6C444.4 287.2 444.4 285.8 447.2 286.8C447.42 285.54 447.42 284.26 447.2 283C447.87 281.19 447.87 279.21 447.2 277.4C444.36 270.48 443.87 262.82 445.8 255.6C446.02 254.68 446.02 253.72 445.8 252.8C445.94 252.66 447.06 251.54 447.2 251.4C447.77 251.91 448.24 252.52 448.6 253.2C448.82 254.12 448.82 255.08 448.6 256C448.6 256.14 448.6 257.26 448.6 257.4C448.6 258.8 451 256 452 255C453.24 254.05 454.58 253.24 456 252.6C456.27 248.94 455.79 245.27 454.6 241.8C452.37 234.27 452.87 226.2 456 219C456 220.4 457.8 221.4 457.8 222.8C458.14 228 460.34 232.9 464 236.6C468.06 241.26 471.12 246.7 473 252.6C473 252.6 473 254.4 474.4 254.4C480.16 256.06 485.4 259.14 489.6 263.4C494.44 267.76 499.04 272.36 503.4 277.2C504.16 278.02 504.76 278.97 505.2 280C505.34 280 506.46 280 506.6 280C506.83 275.6 506.83 271.2 506.6 266.8C506.6 263 508.4 259.2 512.2 259.8C512.38 259.8 513.82 259.8 514 259.8C514.17 256.33 516.62 253.4 520 252.6C521.43 255.08 521.43 258.12 520 260.6C522.8 264 523.4 265.8 520 269.6C516.6 273.4 518.2 273.8 520 277.6C520.39 275.4 521.2 273.29 522.4 271.4C523.4 269.4 523.8 266.2 526.2 265.2C526.98 264.93 527.82 264.93 528.6 265.2C530.91 265.66 533.29 265.66 535.6 265.2C538.59 264.95 541.41 266.64 542.6 269.4C541.94 269.72 536.66 272.28 536 272.6C537.4 275.4 536 276.4 533.2 278.2C531.81 279.48 530.53 280.89 529.4 282.4C531.97 281.95 534.5 281.34 537 280.6C540.51 279.71 544.15 281.49 545.6 284.8C546.14 285.93 546.96 286.9 548 287.6C549.94 289.28 551.16 291.65 551.4 294.2C551.55 294.79 551.55 295.41 551.4 296C551.02 295.72 547.98 293.48 547.6 293.2C546.59 292.23 545.01 292.23 544 293.2C542.61 294.55 540.39 294.55 539 293.2C536.23 291.55 532.77 291.55 530 293.2C527.88 294.6 525.67 295.86 523.4 297C528.72 297.72 533.39 300.9 536 305.6C537.4 308.4 539.4 311.2 540.8 314.2C541.94 316.69 540.87 319.63 538.4 320.8C538.33 320.8 538 320.8 537.4 320.8C537.4 320.2 537.4 319.87 537.4 319.8C537.4 317.4 536 317 533.6 317.4C530.87 318.3 527.93 316.82 527.03 314.1C527.02 314.06 527.01 314.03 527 314C524.68 309.34 520.78 305.66 516 303.6C515.58 303.42 512.22 301.98 511.8 301.8C511.49 303.62 510.88 305.38 510 307C509.34 308.05 508.53 308.99 507.6 309.8C504.8 312.2 504.8 312.6 507.6 316C510.4 319.4 509 317.8 510 319.4C506.95 319.58 503.99 318.32 502 316C499.52 313.2 497.49 310.03 496 306.6C494.81 303.31 495.95 299.63 498.8 297.6C500.2 296.21 501.35 294.59 502.2 292.8C500.78 292.42 489.42 289.38 488 289C488.23 291.19 488.23 293.41 488 295.6C488.48 303.66 488.48 311.74 488 319.8C487.52 331.78 485.64 343.66 482.4 355.2C480.06 364.09 476.7 372.68 472.4 380.8C468.79 388.12 464.72 395.2 460.2 402C456.34 407.65 452.06 413 447.4 418C442.68 423.54 437.46 428.63 431.8 433.2C425.6 438.4 419 442.6 411.8 447C402.11 453.15 391.61 457.93 380.6 461.2C373.18 463.38 365.63 465.11 358 466.4C353.77 467.23 349.5 467.83 345.2 468.2C342.53 469.04 340.44 471.13 339.6 473.8C338.41 480.2 334.66 485.84 329.2 489.4C326.8 491.2 324 492.8 321.2 494.6C321.34 494.18 322.46 490.82 322.6 490.4C323.09 488.54 322.56 486.56 321.2 485.2C319.8 483.8 317.8 485.2 316 485.2C314.2 485.2 312.6 487.6 312.2 490.4C311.42 495.61 308.02 500.07 303.2 502.2C302.96 502.2 301.04 502.2 300.8 502.2C301.43 500.51 301.9 498.77 302.2 497C302.2 495.6 300.8 494.2 299.8 492.8C298.8 491.4 298 492.8 297 492.8C296.43 493.08 293.56 494.48 288.4 497L285.6 498.4C290.16 500.44 292.69 501.57 293.2 501.8C297.31 503.77 300.63 507.09 302.6 511.2C304.27 513.46 304.27 516.54 302.6 518.8C302.13 519.53 302.13 520.47 302.6 521.2C303.92 525.98 303.27 531.1 300.8 535.4C300.8 536.8 298.4 538.2 297.4 539.6C297.26 538.64 296.14 530.96 296 530C296 529.01 295.19 528.2 294.2 528.2C288.43 528.45 283.05 525.33 280.4 520.2C280.26 520.02 279.14 518.58 279 518.4C276.52 521.94 272.82 524.44 268.6 525.4C262.81 528.02 258.49 533.08 256.8 539.2C256.11 542.67 254.97 546.03 253.4 549.2C251.63 553.73 246.58 556.03 242 554.4C242 555.16 242 561.24 242 562C237.51 560.85 234.8 556.27 235.95 551.77C235.97 551.72 235.98 551.66 236 551.6C236.24 550.48 236.24 549.32 236 548.2C233.12 542.58 234.93 535.68 240.2 532.2C244.12 529.35 247.5 525.83 250.2 521.8C250.34 521.34 250.34 520.86 250.2 520.4C248.78 520.22 237.42 518.78 236 518.6C232.49 517.63 228.73 518.14 225.6 520C225.32 520.36 223.08 523.24 222.8 523.6C218.6 528.4 216.6 528.8 211 526C208.79 529.88 207.95 534.39 208.6 538.8C206.48 536.74 205.02 534.09 204.4 531.2C204.16 529.61 204.16 527.99 204.4 526.4C204.4 526.12 204.4 523.88 204.4 523.6C203.94 522.24 203.94 520.76 204.4 519.4C206.08 515.55 209.15 512.48 213 510.8C217.25 508.02 222.14 506.36 227.2 506C231 505.76 234.8 505.76 238.6 506C238.88 506 241.12 506 241.4 506C239.68 501.8 236.27 498.53 232 497C230.92 496.58 222.28 493.22 221.2 492.8C218.72 493.16 216.41 491.47 216 489C216 488.01 215.19 487.2 214.2 487.2C210.86 487.19 207.59 488.16 204.8 490C206.2 485.8 208.2 481.4 212.8 480.6C214.86 480.36 216.94 480.36 219 480.6C219.18 480.6 220.62 480.6 220.8 480.6C223.6 476.4 227.8 477.2 231.6 479.2C237.14 481.84 241.74 486.08 244.8 491.4C246.21 494.19 248.77 496.24 251.8 497C252.07 493.34 251.59 489.67 250.4 486.2C250.25 482.9 247.99 480.07 244.8 479.2C240 477.8 238.6 474.4 241 469.2C237.78 466.34 233.28 465.43 229.2 466.8C230.6 463 236.2 461.6 240 462C243.43 464.05 247.41 465.03 251.4 464.8C254.12 465.31 256.43 467.1 257.6 469.6C257.88 470.16 260.12 474.64 260.4 475.2C262.8 479.4 264.6 484.2 266.6 488.4C269.4 480.4 272.8 471.8 276 462.8C275.68 462.68 274.08 462.08 271.2 461C262.92 457.64 258.32 455.77 257.4 455.4C246.87 450.85 236.88 445.15 227.6 438.4C225.98 437.52 224.22 436.91 222.4 436.6C221 436.6 219 438.4 220 440C221 441.6 222.4 441.8 223.4 443.4C224.4 445 223.4 444.8 225.2 445.8C224.96 445.8 223.04 445.8 222.8 445.8C216.15 445.95 210.09 441.97 207.6 435.8C204.65 429.86 202.89 423.41 202.4 416.8C202.59 416.35 202.59 415.85 202.4 415.4C201.12 413.98 190.88 402.62 189.6 401.2C188.64 403.64 188.64 406.36 189.6 408.8C189.69 408.99 190.16 409.92 191 411.6L191 415C188.72 415 187.45 415 187.2 415C185.04 412.64 183.28 409.93 182 407C180.2 400 179.2 392.8 177.8 385.8C177.46 382.29 176.85 378.82 176 375.4C174.96 371.4 173.69 367.46 172.2 363.6C172.2 364.7 172.2 373.5 172.2 374.6C172.2 375.6 169.8 374.6 169.4 372.8C167.23 369.07 165.93 364.9 165.6 360.6C165.37 350.5 166.78 340.44 169.8 330.8C170.72 327.27 171.85 323.79 173.2 320.4C172.74 321.54 172.14 322.62 171.4 323.6C171.28 323.72 170.68 324.32 169.6 325.4C169.6 323.96 169.6 323.16 169.6 323C169.54 318.5 170.72 314.08 173 310.2C176.4 302.6 180.6 295 184.4 287.6C185.97 284.96 187.71 282.42 189.6 280C189.37 280.24 188.24 281.44 186.2 283.6L183.8 285C183.8 284.16 183.8 283.69 183.8 283.6C185.09 281.46 186.49 279.39 188 277.4C192.5 271.95 197.75 267.17 203.6 263.2C204.96 262.73 206.44 262.73 207.8 263.2C209.13 263.48 215.8 264.88 227.8 267.4C232 268.48 234.33 269.08 234.8 269.2C232.89 271.16 231.28 273.38 230 275.8C228.75 278.25 228.75 281.15 230 283.6C230.7 284.62 230.7 285.98 230 287C225.45 290.92 221.59 295.59 218.6 300.8C218.6 300.98 218.6 302.42 218.6 302.6C218.6 302.6 225.2 309.2 228.6 313C228.8 313.6 228.8 314.2 228.6 314.8C225.52 320.05 225.52 326.55 228.6 331.8C229.54 335.44 233.24 337.63 236.88 336.69C236.99 336.66 237.09 336.63 237.2 336.6C237.03 340.49 238.24 344.31 240.6 347.4C242 348.8 244 349.8 245.4 351.2C246.24 351.79 246.87 352.63 247.2 353.6C249.47 360.87 255.67 366.22 263.2 367.4C268.96 368.2 274.8 367 279.8 364C281.6 364 282.2 362.6 282.6 364C283.72 370.98 285.96 377.72 289.2 384C293.34 391.32 298.46 398.04 304.4 404C309.74 409.1 316.28 412.8 323.4 414.8C332.2 416.78 341.4 414.3 348 408.2C352.15 404 355.65 399.22 358.4 394C359.26 392.62 366.14 381.58 367 380.2C370.78 374.99 375.62 370.63 381.2 367.4C383.07 365.96 385.5 365.44 387.8 366C387.66 366.28 386.54 368.52 386.4 368.8C384.23 372.29 384.23 376.71 386.4 380.2C387.8 382 388.8 382 389.8 380.2C390.8 378.4 392.6 375 396.4 375.4C400.2 375.8 400.2 373 400.6 370.6C401 360.18 404.1 350.05 409.6 341.2C410.63 340.14 411.77 339.21 413 338.4C413 339.16 413 345.24 413 346C413.38 348.12 414 350.2 414.8 352.2C414.92 351.94 415.88 349.86 416 349.6C416.7 348.13 418.18 347.2 419.8 347.2C420.74 347.04 421.59 346.54 422.2 345.8C424.88 342.65 425.78 338.36 424.6 334.4C424.13 331.42 424.13 328.38 424.6 325.4C424.59 321.62 425.55 317.9 427.4 314.6C427.84 313.57 428.44 312.62 429.2 311.8C429.29 311.8 429.76 311.8 430.6 311.8C430.6 315.76 430.6 317.96 430.6 318.4C430.45 318.99 430.45 319.61 430.6 320.2C430.72 320.2 431.32 320.2 432.4 320.2C434.56 318.76 435.76 317.96 436 317.8C437.36 315.36 437.99 312.58 437.8 309.8C437.52 308.21 437.52 306.59 437.8 305C437.8 303.36 437.8 290.24 437.8 288.6C437.8 286.4 437.8 286.2 439.2 284.8C439.35 284.72 440.08 284.32 441.4 283.6C441.4 288.88 441.4 291.81 441.4 292.4C441.7 291.79 442.32 291.4 443 291.4C443 291.4 444.26 288.88 444.4 288.6ZM209 188.4C209.68 187.66 210.5 187.05 211.4 186.6C212.8 185.2 211.4 183.8 211.4 182.4C211.4 181 209.6 182.4 208 182.4C207.88 182.4 207.28 182.4 206.2 182.4C206.2 180.96 206.2 180.16 206.2 180C207.21 176.68 209.62 173.98 212.8 172.6C217.97 170.74 223.63 170.74 228.8 172.6C229.68 173.03 230.72 173.03 231.6 172.6C232.74 171.98 241.86 167.02 243 166.4C244.8 166.4 244.4 164.6 243 163.6C241.6 162.6 239.6 161.2 237.8 163.6C237.21 163.75 236.59 163.75 236 163.6C236 160.2 239.4 157.4 242.6 156C248 154.34 253.8 154.34 259.2 156C259.28 156 259.92 156 260 156C261.4 156 265.6 157.8 269 156C269.7 155.76 275.3 153.84 276 153.6C277.8 153.6 277.8 152.2 276 151.2C274.2 150.2 273.6 148.4 271.8 149.8C270 151.2 271.8 149.8 270 149.8C269.21 148.96 269.21 147.64 270 146.8C273.49 144.17 277.87 143.02 282.2 143.6C286.14 143.9 289.89 145.36 293 147.8C293.14 147.8 294.26 147.8 294.4 147.8C295.78 149.41 297.94 150.11 300 149.6C302.34 148.2 305.26 148.2 307.6 149.6C307.69 149.6 308.16 149.6 309 149.6C309 148.52 309 147.92 309 147.8C308.35 145.26 306.02 143.52 303.4 143.6C303.26 143.6 302.14 143.6 302 143.6C306.83 139.83 313.31 138.91 319 141.2C323.12 142.88 326.72 145.64 329.4 149.2C330.45 149.85 331.6 150.32 332.8 150.6C335.53 150.51 338.26 150.99 340.8 152C343.2 153.4 342.2 152 342.6 153.8C343.87 151.1 342.72 147.88 340.02 146.61C340.02 146.61 340.01 146.6 340 146.6C339.73 146.6 338.4 146.6 336 146.6C336 144.8 336 143.8 336 143.6C338.18 143.17 340.42 143.17 342.6 143.6C348.92 144.34 354.6 147.76 358.2 153C359.6 155.4 360.76 157.94 361.6 160.6C365.06 160.17 368.49 161.62 370.6 164.4C370.74 164.4 371.86 164.4 372 164.4C372.83 164.23 373.64 163.96 374.4 163.6C374.31 160.41 372.23 157.61 369.2 156.6C369.06 156.6 367.94 156.6 367.8 156.6C369.6 156.6 371.2 155.2 373 156.6C376 156.88 378.9 157.7 381.6 159C388.72 161.9 394.04 167.98 396 175.4C399.4 177.2 401.6 179.2 404 180.6C404.19 180.6 405.12 180.6 406.8 180.6C406.8 178.08 406.8 176.68 406.8 176.4C406.2 173.5 404.27 171.06 401.6 169.8C401.42 169.66 399.98 168.54 399.8 168.4C404.25 167.4 408.9 168.85 412 172.2C415.7 175.32 418.46 179.4 420 184C420.33 185.52 421.37 186.79 422.8 187.4C424.32 188.54 425.72 189.8 427 191.2C428.8 186 424.6 183.2 423.2 179.4C426.29 179.46 429.2 180.85 431.2 183.2C434 186.12 436.52 189.26 438.8 192.6C440.24 195.04 441.84 197.38 443.6 199.6C445.04 202.28 445.98 205.2 446.4 208.2C446.68 214.98 445.73 221.76 443.6 228.2C443.36 232.6 443.36 237 443.6 241.4C443.8 242 443.8 242.6 443.6 243.2C440.03 246.14 437.8 250.39 437.4 255C436.45 260.96 436.45 267.04 437.4 273C437.4 273.14 437.4 274.26 437.4 274.4C431.81 278.08 428.43 284.31 428.4 291C428.4 292.04 428.4 300.36 428.4 301.4C422.53 302.59 417.78 306.88 416 312.6C414.6 315.4 414.2 318.8 412.6 321.6C411 324.4 410.8 323.4 409.8 324.4C409.8 324.02 409.8 320.98 409.8 320.6C410.99 314.34 411.46 307.97 411.2 301.6C411.4 292.2 409.62 282.87 406 274.2C406 273.86 406 271.14 406 270.8C409.13 267.6 411.11 263.45 411.6 259C412.1 252.34 412.1 245.66 411.6 239C411.68 234.28 409.97 229.7 406.8 226.2C403.47 222.79 398.4 221.75 394 223.6C388.3 226.01 384.59 231.61 384.6 237.8C384.6 238.5 384.6 244.1 384.6 244.8C377.53 237.71 369 232.25 359.6 228.8C354.21 226.9 348.65 225.49 343 224.6C341.78 224.6 332.02 224.6 330.8 224.6C322.91 224.63 315.08 225.91 307.6 228.4C303.4 229.8 299.6 231.8 295.4 233.2C294.52 233.66 293.48 233.66 292.6 233.2C283.63 227.79 273.93 223.68 263.8 221C259.03 219.71 254.14 218.9 249.2 218.6C239.2 216.6 229.2 215.2 220.8 212.6C213.28 210.81 206.11 207.76 199.6 203.6C199.15 202.26 198.32 201.07 197.2 200.2C197.2 200.2 207.82 189.58 209 188.4ZM373.4 296.6C373.4 297.3 373.4 302.9 373.4 303.6C373.5 304.4 373.5 305.2 373.4 306C373.12 306 370.88 306 370.6 306C368.62 304.39 366.75 302.66 365 300.8C362.62 301.83 360.85 303.89 360.2 306.4C358.8 310.2 356.8 310.6 354 306.4C352.97 305.35 351.83 304.41 350.6 303.6C349.32 305.42 347.91 307.16 346.4 308.8C345.7 309.63 344.68 310.13 343.6 310.2C342.88 309.5 342.28 308.69 341.8 307.8C341.59 306.41 341.59 304.99 341.8 303.6C339.4 309.8 336.6 315 329.6 316.4C329.34 313.79 329.83 311.15 331 308.8C332.4 306.4 331 308.8 331 307.4C327.88 310.4 326.02 314.48 325.8 318.8C326.12 327.46 328.36 335.94 332.4 343.6C335.2 350.6 338.6 357.4 341.4 363.6C343.96 369.94 345.12 376.76 344.8 383.6C345.72 393.5 338.43 402.27 328.53 403.18C324.06 403.6 319.58 402.32 316 399.6C311.43 396.77 307.43 393.1 304.2 388.8C301.4 385 298.6 381.2 296.2 377.4C294.86 374.62 293.72 371.75 292.8 368.8C292.8 368.52 292.8 366.28 292.8 366C295.09 365.86 297.21 367.24 298 369.4C299 371 303.2 377.4 306 381.2C308.3 385.8 311.76 389.72 316 392.6C321.9 395.09 328.71 392.32 331.19 386.41C331.2 386.41 331.2 386.4 331.2 386.4C331.2 386.26 331.2 385.14 331.2 385C332.9 379.96 332.4 374.44 329.8 369.8C326.4 362.2 322.2 354.6 318.4 347.2C314 339.22 310.96 330.57 309.4 321.6C309.16 319.41 309.16 317.19 309.4 315C306.4 315.24 303.4 315.24 300.4 315C299.8 314.84 296.8 314.04 291.4 312.6C288.88 314.28 287.48 315.21 287.2 315.4C287.39 314.48 287.39 313.52 287.2 312.6C287.28 308.86 285.28 305.39 282 303.6C279.9 303.6 278.2 305.3 278.2 307.4C277.9 311.56 279.9 315.54 283.4 317.8C284.2 318.36 290.6 322.84 291.4 323.4C294.2 325.2 293.8 325.2 295.2 323.4C295.39 322.48 295.39 321.52 295.2 320.6C299 320.6 300.4 323 300.8 326.8C301.72 331.6 303 336.36 304.6 341C304.78 343.03 304.13 345.05 302.8 346.6C300.33 349.71 297.09 352.13 293.4 353.6C290.38 354.77 287.02 354.77 284 353.6C285.75 351.86 287.62 350.26 289.6 348.8C291.31 347.06 291.99 344.56 291.4 342.2C291.11 341.43 290.41 340.9 289.6 340.8C287.74 340.57 285.86 340.57 284 340.8C282.55 340.9 281.2 341.55 280.2 342.6C276.92 345.2 273.44 347.54 269.8 349.6C263.71 352.76 256.27 351.63 251.4 346.8C249.69 344.89 248.4 342.64 247.6 340.2C247.46 339.92 246.34 337.68 246.2 337.4C245.5 338.12 244.69 338.72 243.8 339.2C242.8 339.2 242.4 336.8 243.8 336.4C244.38 333.8 245.2 331.26 246.2 328.8C246.66 327.92 246.66 326.88 246.2 326C244.6 323.78 242.47 321.99 240 320.8C238.2 319.4 236.6 320.8 235.2 320.8C234.96 320.8 233.04 320.8 232.8 320.8C232.85 320 232.85 319.2 232.8 318.4C233.49 314.1 236.61 310.59 240.8 309.4C241.04 309.4 242.96 309.4 243.2 309.4C237.47 307.21 232.28 303.8 228 299.4C226.6 298 226.2 297 228 295.6C229.8 294.2 233.2 291 236 289C241.37 287.09 247.23 287.09 252.6 289C257.54 290.64 262.06 293.36 265.8 297C265.94 297.14 267.06 298.26 267.2 298.4C264.91 291.46 259.51 285.98 252.6 283.6C246.51 281.33 240.09 280.05 233.6 279.8C234.26 277.33 236.28 275.46 238.8 275C239.88 274.8 248.52 273.2 249.6 273C253.44 272.15 257.01 270.36 260 267.8C258.07 266.21 255.99 264.8 253.8 263.6C248.2 261.2 242.4 258.4 236.8 256.6C231.71 254.36 226.32 252.87 220.8 252.2C213.09 251.12 205.52 249.25 198.2 246.6C189.37 244.19 180.94 240.48 173.2 235.6C165.2 230.4 158.4 223.6 153.2 215.6C151.99 213.53 151.05 211.31 150.4 209C150.4 208.84 150.4 208.04 150.4 206.6L152.8 206.6C154.72 207.68 155.79 208.28 156 208.4C161.2 212.6 166 217.8 171.2 221.6C177.58 226.23 184.77 229.62 192.4 231.6C198.6 233 204.6 234.4 210.8 235.4C217 236.4 221.2 235.4 226.4 236.8C227.54 236.94 236.66 238.06 237.8 238.2C242.14 238.5 246.44 239.3 250.6 240.6C257.2 243 263.4 245.8 269.6 248.2C270.33 248.67 271.27 248.67 272 248.2C274.6 247.62 277.14 246.8 279.6 245.8C279.6 245.58 279.6 243.82 279.6 243.6C274.99 241.03 270.25 238.69 265.4 236.6C256.31 233.02 246.74 230.8 237 230C235.68 229.86 225.12 228.74 223.8 228.6C216.57 227.4 209.42 225.73 202.4 223.6C195.14 220.96 188.37 217.1 182.4 212.2C177.37 208.32 173.61 203.03 171.6 197C171.6 196.58 171.6 193.22 171.6 192.8C172.69 192.34 173.91 192.34 175 192.8C175.52 193.36 179.68 197.84 180.2 198.4C183 201.2 185.8 204 189.2 207C197.12 213.2 206.24 217.7 216 220.2C221.6 221.6 227.4 222.6 233 223.6C242 225 251.4 226.4 260.4 228.4C271.07 230.31 281.02 235.08 289.2 242.2C292.6 245 295.4 243.6 298.6 242.2C302.08 241.54 305.58 243.25 307.2 246.4C309.6 252.86 309.6 259.94 307.2 266.4C306.76 268.85 307.87 271.31 310 272.6C310.24 272.6 312.16 272.6 312.4 272.6C318.08 270.27 324.58 271.19 329.4 275C330.92 276.2 333.08 276.2 334.6 275C338.52 273.17 342.33 271.1 346 268.8C349.8 266.4 347.8 265.4 348.8 263.6C351.6 257.92 357.73 254.69 364 255.6C368.3 255.6 372.6 256.06 376.8 257C380.21 257.92 383.79 257.92 387.2 257C391.6 256.47 395.16 253.16 396 248.8C396 247.52 396 237.28 396 236C396 234.6 396 233.2 398.4 233.2C400.8 233.2 400.2 235 400.2 236.6C401.64 243.2 401.64 250 400.2 256.6C399.37 262.53 393.95 266.71 388 266C386.3 266 372.7 266 371 266C366.24 265.7 361.98 268.94 361 273.6C360.78 274.52 360.78 275.48 361 276.4C362.4 279.2 363.4 281.6 367.6 281.2C369.84 281.4 371.6 283.16 371.8 285.4C372.7 290.33 376.81 294.03 381.8 294.4C382.09 294.39 383.56 294.32 386.2 294.2C382.07 297 377.8 297.8 373.4 296.6ZM282.4 287.4C285.18 289.5 289.02 289.5 291.8 287.4C294.44 285.83 296.98 284.09 299.4 282.2C299.4 282.06 299.4 280.94 299.4 280.8C298.94 278.97 297.7 277.43 296 276.6C294.3 276.15 292.5 276.15 290.8 276.6C290.46 276.74 287.74 277.86 287.4 278C283.99 278.92 280.41 278.92 277 278C276.85 278.16 276.12 278.96 274.8 280.4C278.09 283.6 280.63 285.93 282.4 287.4ZM342.8 288.4C346.3 289.07 349.47 290.9 351.8 293.6C354.12 293.82 356.48 293.82 358.8 293.6C360.2 293.6 361.2 292.2 362.6 291.8C361.46 290.42 360.18 289.14 358.8 288C352.84 285.49 346.19 285.14 340 287C340.82 287.67 341.77 288.15 342.8 288.4ZM110.8 354.2C113.19 353.5 115.11 351.72 116 349.4C108.5 351.13 100.63 350.14 93.8 346.6C87.26 342.87 82.61 336.55 81 329.2C77.93 318.27 82.3 306.61 91.8 300.4C87.5 314.21 95.2 328.89 109 333.2C109.28 333.2 111.52 333.2 111.8 333.2C124.07 335.75 136.5 329.66 142 318.4C139.9 320.02 137.9 321.76 136 323.6C127.26 329.6 115.74 329.6 107 323.6C98.8 318.18 96.53 307.14 101.95 298.94C103.05 297.28 104.42 295.81 106 294.6C106.54 297.98 108.61 300.93 111.6 302.6C114.54 304.22 117.71 305.37 121 306C128.27 307.17 135.67 304.87 141 299.8C143.9 296.83 146.14 293.29 147.6 289.4C151.4 280.4 154.2 271 158.4 262C161.12 256.51 164.12 251.17 167.4 246C167.4 244.6 169.2 246 170.2 246C170.89 246.37 174.36 248.24 180.6 251.6L187.2 254.4C185.52 255.84 184.59 256.64 184.4 256.8C178.13 263.48 172.76 270.94 168.4 279C165 285.2 161.8 290.8 159 297C156.2 303.2 153.4 311.2 151 318.2C150.44 319.8 145.96 332.6 145.4 334.2C144 338.4 142 342.2 140.2 346.4C137.52 352.48 132.87 357.48 127 360.6C123.55 362.28 119.82 363.29 116 363.6C112.21 364.08 108.39 364.08 104.6 363.6C98.33 363.12 93 358.83 91.2 352.8C91.48 351.39 91.34 349.93 90.8 348.6C95.9 354.05 103.61 356.21 110.8 354.2ZM372.2 339.2C372.2 342 370.4 342 368 340.6C367.63 340.41 365.76 339.48 362.4 337.8C360.96 337.8 360.16 337.8 360 337.8C361.64 341.07 361.64 344.93 360 348.2C359.67 349.17 359.04 350.01 358.2 350.6C358.05 350.6 357.32 350.6 356 350.6C355.16 348.08 354.69 346.68 354.6 346.4C353.59 344.09 350.92 343.02 348.6 344C346.75 344.51 344.99 345.32 343.4 346.4C343.12 346.4 340.88 346.4 340.6 346.4C337.15 339.79 334.91 332.61 334 325.2C334.2 325.44 335.8 327.36 336 327.6C339.37 330.17 344.03 330.17 347.4 327.6C348.38 325.51 348.38 323.09 347.4 321C347.4 319.6 346 318.6 345.6 317.2C348.4 317.2 348.4 314.8 355.6 323.4C356.12 323.12 360.28 320.88 360.8 320.6C362.6 320.6 360.8 317.8 360.8 316.8C360.8 316.52 360.8 315.12 360.8 312.6C362.84 313.44 363.97 313.91 364.2 314C365.17 314.33 366.01 314.96 366.6 315.8C369.59 319.17 372.94 322.18 376.6 324.8C378.85 326.67 380.11 329.48 380 332.4C380 332.52 380 333.12 380 334.2C379.16 334.2 378.69 334.2 378.6 334.2C373.6 332.6 373.6 332.6 372.2 332.6C372.44 334.8 372.44 337 372.2 339.2ZM123.2 298C121.34 298.23 119.46 298.23 117.6 298C113.46 297.31 110.66 293.4 111.35 289.26C111.47 288.54 111.69 287.85 112 287.2C113.8 287.2 115.4 289.6 117.2 290.6C119 291.6 119.6 290.6 119.6 289.2C119.47 286.81 120.82 284.59 123 283.6C126.1 282.51 129.55 283.2 132 285.4C136.04 289.4 137.6 295.32 136 300.8C132.14 298.53 127.66 297.54 123.2 298Z" id="b1MXDu85bm"></path><path d="M640 320C640 496.61 496.61 640 320 640C143.39 640 0 496.61 0 320C0 143.39 143.39 0 320 0C496.61 0 640 143.39 640 320Z" id="g2fhc7Hfqy"></path></defs><g><g><g><use xlink:href="#a6t7czVih" opacity="1" fill="#eab304" fill-opacity="1"></use><g><use xlink:href="#a6t7czVih" opacity="1" fill-opacity="0" stroke="#000000" stroke-width="1" stroke-opacity="0"></use></g></g><g><use xlink:href="#b1MXDu85bm" opacity="1" fill="#ffffff" fill-opacity="1"></use><g><use xlink:href="#b1MXDu85bm" opacity="1" fill-opacity="0" stroke="#000000" stroke-width="1" stroke-opacity="0"></use></g></g><g><use xlink:href="#g2fhc7Hfqy" opacity="1" fill="#0ad501" fill-opacity="0"></use><g><use xlink:href="#g2fhc7Hfqy" opacity="1" fill-opacity="0" stroke="#000000" stroke-width="3" stroke-opacity="1"></use></g></g></g></g></svg>